<?xml version="1.0" encoding="UTF-8"?>
<svg version="1.1" xmlns="http://www.w3.org/2000/svg" width="500" height="500">
<path d="M0 0 C0.99 0 1.98 0 3 0 C3.10251672 5.12583611 3.03590199 9.94997778 2 15 C2.75023437 15.02578125 3.50046875 15.0515625 4.2734375 15.078125 C13.9913138 15.61664711 23.23589022 17.52387867 30 25 C30.4375 28.25 30.4375 28.25 30 31 C29.505 31.495 29.505 31.495 29 32 C29.59167969 32.02578125 30.18335938 32.0515625 30.79296875 32.078125 C36.04981899 32.45545193 39.17748357 33.05802993 43 37 C45.09126425 41.1825285 44.83829066 45.48370907 44 50 C42.73659174 52.62344706 41.18724902 55.04560216 39.625 57.5 C35.18512001 64.50561833 33.87363619 70.54504859 33.51806641 78.79296875 C33.25798777 84.59528647 33.25798777 84.59528647 31.84912109 86.80541992 C30 88 30 88 27.00219727 87.9921875 C24 87 24 87 22.29663086 84.8828125 C21.63739624 83.51769531 21.63739624 83.51769531 20.96484375 82.125 C20.46533203 81.14015625 19.96582031 80.1553125 19.45117188 79.140625 C18.95166016 78.10421875 18.45214844 77.0678125 17.9375 76 C16.94200397 73.95037436 15.93093005 71.90822105 14.90234375 69.875 C14.46398193 68.96492188 14.02562012 68.05484375 13.57397461 67.1171875 C12.15275318 64.79125048 12.15275318 64.79125048 9.50610352 64.1328125 C6.87049809 63.8398394 6.87049809 63.8398394 4 65 C4.66 63.68 5.32 62.36 6 61 C9.0625 60.5 9.0625 60.5 13 61 C19.43642617 65.92280507 23.18650872 74.04530465 27 81 C27.03867188 79.65808594 27.03867188 79.65808594 27.078125 78.2890625 C27.55858353 68.04656029 29.29230021 60.67863163 35.25 52.3125 C37.40484099 49.23025909 38.00149122 47.98972713 38.5625 44.125 C37.95680996 40.76005532 37.63557925 40.0074101 35 38 C32.88111187 37.56232588 32.88111187 37.56232588 30.54296875 37.62890625 C29.24456055 37.60280273 29.24456055 37.60280273 27.91992188 37.57617188 C26.1100412 37.567116 24.30013723 37.56185745 22.49023438 37.56054688 C16.68644188 37.43578039 13.4996611 36.74104055 9 33 C9.33 32.01 9.66 31.02 10 30 C10.53625 30.474375 11.0725 30.94875 11.625 31.4375 C14.44884459 33.29529249 16.65656596 33.70280586 20 34 C20.33 33.67 20.66 33.34 21 33 C19.7625 32.5875 18.525 32.175 17.25 31.75 C13.69180176 30.43144781 11.45806703 28.97016433 9 26 C11.7886047 26.49210671 14.32421645 27.11482666 17 28.0625 C19.87631909 28.96134971 22.01551125 29.17555816 25 29 C24.33664015 25.9120876 24.33664015 25.9120876 22.06640625 24.8671875 C14.96337309 22.05256906 8.18687819 19.83697828 0.625 21.9375 C-4.02176745 25.58853156 -5.63321031 29.27135894 -6.41796875 35.109375 C-6.7576888 43.22592966 -5.0308442 49.61822354 -2.24609375 57.18359375 C0.63185188 65.41753871 1.12142989 74.34536054 1 83 C4.79620155 81.73459948 5.48678188 80.21781569 7.6875 76.9375 C8.62142578 75.55884766 8.62142578 75.55884766 9.57421875 74.15234375 C10.04472656 73.44207031 10.51523438 72.73179687 11 72 C11.66 72.33 12.32 72.66 13 73 C12.06915029 74.77433812 11.13005387 76.54435149 10.1875 78.3125 C9.66542969 79.29863281 9.14335937 80.28476562 8.60546875 81.30078125 C7.2178078 83.63380732 6.13115002 85.34180574 4 87 C1.4375 86.875 1.4375 86.875 -1 86 C-3.33811473 82.49282791 -3.66796112 79.43925268 -4.25 75.375 C-5.50494685 67.3965071 -7.83426425 60.14200715 -10.6953125 52.609375 C-13.8153557 43.97787823 -14.33885064 34.7540986 -11.05078125 26.07421875 C-8.40145823 20.8445142 -5.21997858 17.60998929 0 15 C0 10.05 0 5.1 0 0 Z " fill="#84A9D9" transform="translate(153,193)"/>
<path d="M0 0 C4.45820633 -0.08800873 8.91618539 -0.14072922 13.375 -0.1875 C14.62667969 -0.21263672 15.87835938 -0.23777344 17.16796875 -0.26367188 C26.86841143 -0.33985336 36.25403744 0.16995083 43.58984375 7.2109375 C47.36690728 12.00289068 48.28884973 17.19653673 47.9375 23.1875 C47.30310551 27.64205262 45.86949454 30.474621 43 34 C41.66577448 35.66595252 40.33231121 37.33251615 39 39 C40.4049769 41.29959895 41.82300449 43.58912318 43.25 45.875 C43.64574219 46.52597656 44.04148438 47.17695313 44.44921875 47.84765625 C47.3023361 52.4597434 47.3023361 52.4597434 52 55 C52 55.66 52 56.32 52 57 C48.8106944 57.65087869 46.16739143 57.83087375 43 57 C39.35039099 53.35039099 36.80229365 48.93462784 34.83203125 44.18359375 C33.0543177 41.55759235 33.0543177 41.55759235 29.12890625 41.546875 C27.60585828 41.58936631 26.08336404 41.6580586 24.5625 41.75 C23.04313503 41.8115439 21.52359656 41.8689702 20.00390625 41.921875 C19.33174072 41.95893555 18.6595752 41.99599609 17.96704102 42.03417969 C16 42 16 42 12 41 C11.67 45.29 11.34 49.58 11 54 C12.65 54.33 14.3 54.66 16 55 C16 55.66 16 56.32 16 57 C10.72 57 5.44 57 0 57 C0 56.34 0 55.68 0 55 C1.32 54.34 2.64 53.68 4 53 C4 36.83 4 20.66 4 4 C2.68 3.34 1.36 2.68 0 2 C0 1.34 0 0.68 0 0 Z M11 2 C11 10.91 11 19.82 11 29 C13.31 27.68 15.62 26.36 18 25 C21.86738717 24.36858985 23.51820093 24.74906298 27 26.5625 C30.47972753 29.38977862 33.2247215 32.49645693 36 36 C40.08557728 32.1239395 41.81188085 30.14455831 42.3125 24.4375 C42.2019297 18.43353283 40.31600482 12.66724725 36.3515625 8.1015625 C30.69603517 3.03875419 25.74489476 1.68843843 18.1875 1.875 C15.815625 1.91625 13.44375 1.9575 11 2 Z M11 31 C10.58219121 33.62694422 10.58219121 33.62694422 11 36 C17.2268627 39.36912378 22.86838431 41.1593931 30 40 C30.66 39.34 31.32 38.68 32 38 C31.06862408 36.70391053 30.1296434 35.41328368 29.1875 34.125 C28.66542969 33.40570313 28.14335937 32.68640625 27.60546875 31.9453125 C25.96727223 29.76971345 25.96727223 29.76971345 23 28 C18.1307849 27.54914675 14.76188261 27.69410316 11 31 Z " fill="#1B4C8C" transform="translate(201,223)"/>
<path d="M0 0 C0.99 0.66 1.98 1.32 3 2 C3.29296875 4.3828125 3.29296875 4.3828125 3.1875 7.125 C3.14689453 8.49011719 3.14689453 8.49011719 3.10546875 9.8828125 C3.07066406 10.58148438 3.03585937 11.28015625 3 12 C2.34 12 1.68 12 1 12 C0.78085937 11.46890625 0.56171875 10.9378125 0.3359375 10.390625 C-1.93409063 5.33381437 -3.95311051 2.68451568 -9 0 C-15.21826626 -2.07275542 -22.55096151 -1.87169167 -28.6875 0.3125 C-31.22076102 1.95723544 -31.22076102 1.95723544 -33 5 C-32.86305013 8.76612131 -32.71710347 11.15193332 -30.24609375 14.07421875 C-27.94222093 16.04953927 -25.96404287 17.17225793 -23.1875 18.375 C-22.22585938 18.7978125 -21.26421875 19.220625 -20.2734375 19.65625 C-17.93225604 20.61730778 -15.59896334 21.53087858 -13.2265625 22.40625 C1.86117339 28.01630053 1.86117339 28.01630053 6 34 C7.50965245 38.27857597 7.55827478 41.60431306 5.875 45.8125 C0.80666924 51.72555255 -4.74614147 54.64511214 -12.46484375 55.2890625 C-20.44391526 55.46727526 -27.49937016 54.76064848 -35 52 C-36.546875 51.4740625 -36.546875 51.4740625 -38.125 50.9375 C-41.28978667 47.66722044 -40.9094892 43.38565966 -41 39 C-38 40 -38 40 -36.3125 42.75 C-32.91472998 47.52524436 -28.52919416 50.15693528 -23 52 C-12.96372108 52.81587483 -12.96372108 52.81587483 -4 49 C-0.96339199 46.12321347 -0.09386048 44.59444968 0.5625 40.4375 C0.33389976 36.94522988 0.33389976 36.94522988 -2 34.99609375 C-5.69334314 32.53867403 -9.40742319 31.12188971 -13.5625 29.625 C-32.690199 22.41479195 -32.690199 22.41479195 -37.75 17.125 C-39.31687904 13.20780241 -39.8125216 10.15380941 -39 6 C-36.57721518 1.06124633 -34.07802731 -0.98994752 -29 -3 C-19.33141748 -6.01744773 -8.93502367 -4.33309112 0 0 Z " fill="#1B4C8C" transform="translate(320,226)"/>
<path d="M0 0 C13.86 0 27.72 0 42 0 C42 3.3 42 6.6 42 10 C41.34 10 40.68 10 40 10 C39.319375 8.824375 39.319375 8.824375 38.625 7.625 C36.83414941 4.73208751 36.08885406 4.19715139 33 3 C30.49034037 2.63745194 30.49034037 2.63745194 27.796875 2.5859375 C26.91354492 2.55032715 26.03021484 2.5147168 25.12011719 2.47802734 C24.00797852 2.44402832 22.89583984 2.4100293 21.75 2.375 C18.2025 2.25125 14.655 2.1275 11 2 C11 10.58 11 19.16 11 28 C22.26376495 27.31747324 22.26376495 27.31747324 26 23 C26.71447643 20.89667109 26.71447643 20.89667109 27 19 C27.66 19 28.32 19 29 19 C29 25.27 29 31.54 29 38 C28.34 38 27.68 38 27 38 C26.54625 37.030625 26.0925 36.06125 25.625 35.0625 C24.34213779 31.92920418 24.34213779 31.92920418 22 31 C18.37 30.67 14.74 30.34 11 30 C11 38.25 11 46.5 11 55 C14.691875 54.896875 18.38375 54.79375 22.1875 54.6875 C23.92036255 54.65015747 23.92036255 54.65015747 25.68823242 54.61206055 C26.60967041 54.57894775 27.5311084 54.54583496 28.48046875 54.51171875 C29.41785889 54.48553467 30.35524902 54.45935059 31.32104492 54.43237305 C36.45242371 53.60418824 39.05791785 51.06287535 42 47 C42.66 47 43.32 47 44 47 C43.505 51.95 43.505 51.95 43 57 C28.81 57 14.62 57 0 57 C0 56.34 0 55.68 0 55 C1.32 54.34 2.64 53.68 4 53 C4 36.83 4 20.66 4 4 C2.68 3.34 1.36 2.68 0 2 C0 1.34 0 0.68 0 0 Z " fill="#1B4C8C" transform="translate(333,223)"/>
<path d="M0 0 C1.051875 0.7115625 1.051875 0.7115625 2.125 1.4375 C7.38157151 4.29433234 11.28025052 3.95329158 17 3 C27.66763425 2.21625544 27.66763425 2.21625544 32.1875 4.875 C35.40559697 8.64794128 35.625 11.76541924 35.625 16.6328125 C34.82545328 20.94037044 32.95219459 23.84382143 30.625 27.5 C26.18512001 34.50561833 24.87363619 40.54504859 24.51806641 48.79296875 C24.25798777 54.59528647 24.25798777 54.59528647 22.84912109 56.80541992 C21 58 21 58 18.00219727 57.9921875 C15 57 15 57 13.29663086 54.8828125 C12.85714111 53.97273438 12.41765137 53.06265625 11.96484375 52.125 C11.46533203 51.14015625 10.96582031 50.1553125 10.45117188 49.140625 C9.95166016 48.10421875 9.45214844 47.0678125 8.9375 46 C7.94200397 43.95037436 6.93093005 41.90822105 5.90234375 39.875 C5.46398193 38.96492188 5.02562012 38.05484375 4.57397461 37.1171875 C3.15275318 34.79125048 3.15275318 34.79125048 0.50610352 34.1328125 C-2.12950191 33.8398394 -2.12950191 33.8398394 -5 35 C-4.34 33.68 -3.68 32.36 -3 31 C0.0625 30.5 0.0625 30.5 4 31 C10.43642617 35.92280507 14.18650872 44.04530465 18 51 C18.02578125 50.10539062 18.0515625 49.21078125 18.078125 48.2890625 C18.55858353 38.04656029 20.29230021 30.67863163 26.25 22.3125 C28.40484099 19.23025909 29.00149122 17.98972713 29.5625 14.125 C28.95680996 10.76005532 28.63557925 10.0074101 26 8 C23.88111187 7.56232588 23.88111187 7.56232588 21.54296875 7.62890625 C20.24456055 7.60280273 20.24456055 7.60280273 18.91992188 7.57617188 C17.1100412 7.567116 15.30013723 7.56185745 13.49023438 7.56054688 C7.75476611 7.43724919 4.31619335 6.93094634 0 3 C0 2.01 0 1.02 0 0 Z " fill="#1B4C8C" transform="translate(162,223)"/>
<path d="M0 0 C5.61 0 11.22 0 17 0 C17 0.66 17 1.32 17 2 C16.360625 2.12375 15.72125 2.2475 15.0625 2.375 C14.381875 2.58125 13.70125 2.7875 13 3 C11.80774085 5.3845183 11.87317293 6.84909216 11.87060547 9.50976562 C11.86745331 10.44413452 11.86430115 11.37850342 11.86105347 12.34118652 C11.8630777 13.35265747 11.86510193 14.36412842 11.8671875 15.40625 C11.86623077 16.44189087 11.86527405 17.47753174 11.86428833 18.54455566 C11.86360702 20.7368984 11.86545791 22.92924315 11.86962891 25.12158203 C11.87497782 28.4860485 11.86968225 31.85038146 11.86328125 35.21484375 C11.86394204 37.34114613 11.86522322 39.46744843 11.8671875 41.59375 C11.86516327 42.60522095 11.86313904 43.61669189 11.86105347 44.65881348 C11.86420563 45.59318237 11.86735779 46.52755127 11.87060547 47.49023438 C11.87140106 48.31471069 11.87219666 49.13918701 11.87301636 49.98864746 C11.87326586 52.07150581 11.87326586 52.07150581 13 54 C15.02463255 54.65213292 15.02463255 54.65213292 17 55 C17 55.66 17 56.32 17 57 C11.39 57 5.78 57 0 57 C0 56.34 0 55.68 0 55 C1.65 54.34 3.3 53.68 5 53 C5 36.83 5 20.66 5 4 C2.525 3.01 2.525 3.01 0 2 C0 1.34 0 0.68 0 0 Z " fill="#1B4C8C" transform="translate(256,223)"/>
<path d="M0 0 C6.0546875 -0.1953125 6.0546875 -0.1953125 8 0 C10 2 10 2 10.125 4.4375 C10.08375 5.283125 10.0425 6.12875 10 7 C9.84188612 10.05270463 9.84188612 10.05270463 11 13 C7.20411134 12.45773019 5.52788007 10.79872437 3 8 C3 9.65 3 11.3 3 13 C2.01 13 1.02 13 0 13 C0 8.71 0 4.42 0 0 Z M3 2 C3 3.32 3 4.64 3 6 C4.65 5.67 6.3 5.34 8 5 C7.34 4.01 6.68 3.02 6 2 C5.01 2 4.02 2 3 2 Z " fill="#1B4C8C" transform="translate(315,289)"/>
<path d="M0 0 C4 2 4 2 6 5 C6.33 3.35 6.66 1.7 7 0 C7.99 0 8.98 0 10 0 C10 4.29 10 8.58 10 13 C6 12 6 12 4.25 9.4375 C3.8375 8.633125 3.425 7.82875 3 7 C2.67 8.98 2.34 10.96 2 13 C1.34 13 0.68 13 0 13 C0 8.71 0 4.42 0 0 Z " fill="#1B4C8C" transform="translate(210,289)"/>
<path d="M0 0 C1.859375 0.19140625 1.859375 0.19140625 4 1 C5.265625 3.21484375 5.265625 3.21484375 6.25 5.9375 C6.58515625 6.83339844 6.9203125 7.72929687 7.265625 8.65234375 C8 11 8 11 8 13 C7.01 13 6.02 13 5 13 C5 12.34 5 11.68 5 11 C3.02 11 1.04 11 -1 11 C-1 11.66 -1 12.32 -1 13 C-1.99 13 -2.98 13 -4 13 C-3.52140759 11.39566191 -3.04210442 9.79153584 -2.5625 8.1875 C-2.29566406 7.29417969 -2.02882812 6.40085937 -1.75390625 5.48046875 C-1.19612127 3.64526945 -0.60655425 1.81966274 0 0 Z M1 5 C1 5.99 1 6.98 1 8 C1.66 8 2.32 8 3 8 C3 7.01 3 6.02 3 5 C2.34 5 1.68 5 1 5 Z " fill="#1B4C8C" transform="translate(244,289)"/>
<path d="M0 0 C2.9375 0.375 2.9375 0.375 4.9375 2.375 C4.9375 3.365 4.9375 4.355 4.9375 5.375 C2.9575 4.715 0.9775 4.055 -1.0625 3.375 C-2.41868499 4.50034105 -2.41868499 4.50034105 -2.125 7.4375 C-2.104375 8.406875 -2.08375 9.37625 -2.0625 10.375 C-0.7425 10.705 0.5775 11.035 1.9375 11.375 C2.2675 10.385 2.5975 9.395 2.9375 8.375 C3.5975 8.375 4.2575 8.375 4.9375 8.375 C4.6075 10.025 4.2775 11.675 3.9375 13.375 C1.125 14 1.125 14 -2.0625 14.375 C-5.0625 12.375 -5.0625 12.375 -5.9375 8.5 C-6.17579016 5.7114981 -6.11708358 4.50343195 -5 1.875 C-3.0625 0.375 -3.0625 0.375 0 0 Z " fill="#1B4C8C" transform="translate(287.0625,288.625)"/>
<path d="M0 0 C0.99 0 1.98 0 3 0 C3.67305018 1.60149886 4.33822227 3.20631029 5 4.8125 C5.37125 5.70582031 5.7425 6.59914063 6.125 7.51953125 C7 10 7 10 7 13 C4.0703125 12.56054688 4.0703125 12.56054688 1.140625 12.12109375 C-1.33941547 11.87452051 -1.33941547 11.87452051 -5 13 C-3.35 8.71 -1.7 4.42 0 0 Z M1 4 C0.67 5.32 0.34 6.64 0 8 C0.99 8 1.98 8 3 8 C2.34 6.68 1.68 5.36 1 4 Z " fill="#1B4C8C" transform="translate(302,289)"/>
<path d="M0 0 C6.625 -0.25 6.625 -0.25 10 2 C10.328125 4.34765625 10.328125 4.34765625 10.25 7.0625 C10.23453125 7.96097656 10.2190625 8.85945313 10.203125 9.78515625 C10 12 10 12 9 13 C5.99668982 13.14193337 3.00782866 13.04236378 0 13 C0 8.71 0 4.42 0 0 Z M2 2 C2 4.97 2 7.94 2 11 C3.65 11 5.3 11 7 11 C7.33 8.69 7.66 6.38 8 4 C5.18490007 1.7226499 5.18490007 1.7226499 2 2 Z " fill="#1B4C8C" transform="translate(177,289)"/>
<path d="M0 0 C2.97 0 5.94 0 9 0 C9 0.66 9 1.32 9 2 C7.02 2 5.04 2 3 2 C3 3.32 3 4.64 3 6 C4.98 6 6.96 6 9 6 C9 6.66 9 7.32 9 8 C7.02 8 5.04 8 3 8 C3 8.99 3 9.98 3 11 C4.98 11 6.96 11 9 11 C9 11.66 9 12.32 9 13 C6.03 13 3.06 13 0 13 C0 8.71 0 4.42 0 0 Z " fill="#1B4C8C" transform="translate(332,289)"/>
<path d="M0 0 C2.97 0 5.94 0 9 0 C9 0.66 9 1.32 9 2 C7.02 2 5.04 2 3 2 C3 3.32 3 4.64 3 6 C4.98 6 6.96 6 9 6 C9 6.66 9 7.32 9 8 C7.02 8 5.04 8 3 8 C3 8.99 3 9.98 3 11 C4.98 11 6.96 11 9 11 C9 11.66 9 12.32 9 13 C6.03 13 3.06 13 0 13 C0 8.71 0 4.42 0 0 Z " fill="#1B4C8C" transform="translate(194,289)"/>
<path d="M0 0 C0.99 0 1.98 0 3 0 C3 3.63 3 7.26 3 11 C4.98 11 6.96 11 9 11 C9 11.66 9 12.32 9 13 C6.03 13 3.06 13 0 13 C0 8.71 0 4.42 0 0 Z " fill="#1B4C8C" transform="translate(258,289)"/>
<path d="M0 0 C3.3 0 6.6 0 10 0 C10 0.99 10 1.98 10 3 C8.68 3 7.36 3 6 3 C6 6.3 6 9.6 6 13 C5.34 13 4.68 13 4 13 C4 9.7 4 6.4 4 3 C2.68 3 1.36 3 0 3 C0 2.01 0 1.02 0 0 Z " fill="#1B4C8C" transform="translate(226,289)"/>
<path d="M0 0 C5.28 0 10.56 0 16 0 C16 0.99 16 1.98 16 3 C10.72 3 5.44 3 0 3 C0 2.01 0 1.02 0 0 Z " fill="#1B4C8C" transform="translate(347,295)"/>
<path d="M0 0 C5.28 0 10.56 0 16 0 C16 0.99 16 1.98 16 3 C10.72 3 5.44 3 0 3 C0 2.01 0 1.02 0 0 Z " fill="#1B4C8C" transform="translate(155,295)"/>
<path d="M0 0 C0.99 0 1.98 0 3 0 C3.10251672 5.12583611 3.03590199 9.94997778 2 15 C1.34 15 0.68 15 0 15 C0 10.05 0 5.1 0 0 Z " fill="#E59D0E" transform="translate(153,193)"/>
<path d="M0 0 C7.84179688 6.4453125 7.84179688 6.4453125 10 10 C10 10.66 10 11.32 10 12 C6.78475695 10.59155282 4.67816132 8.89655214 2.25 6.375 C1.63640625 5.74335938 1.0228125 5.11171875 0.390625 4.4609375 C-0.06828125 3.97882813 -0.5271875 3.49671875 -1 3 C-0.67 2.01 -0.34 1.02 0 0 Z " fill="#E59D0E" transform="translate(132,201)"/>
<path d="M0 0 C-1 3 -1 3 -3.1796875 4.16796875 C-4.06914062 4.50441406 -4.95859375 4.84085938 -5.875 5.1875 C-6.75929687 5.53167969 -7.64359375 5.87585938 -8.5546875 6.23046875 C-11 7 -11 7 -14 7 C-14 6.01 -14 5.02 -14 4 C-12.0429132 3.32968281 -10.08428887 2.66385317 -8.125 2 C-7.03445312 1.62875 -5.94390625 1.2575 -4.8203125 0.875 C-2 0 -2 0 0 0 Z " fill="#E59D0E" transform="translate(138,231)"/>
<path d="M0 0 C6.435 2.97 6.435 2.97 13 6 C13 6.66 13 7.32 13 8 C7.93001981 7.34580901 3.58009223 5.1453591 -1 3 C-0.67 2.01 -0.34 1.02 0 0 Z " fill="#E59D0E" transform="translate(125,211)"/>
<path d="M0 0 C0.99 0 1.98 0 3 0 C3.67260351 1.76858691 4.33788395 3.53996016 5 5.3125 C5.37125 6.29863281 5.7425 7.28476563 6.125 8.30078125 C7 11 7 11 7 14 C6.34 14 5.68 14 5 14 C4.16235732 12.04350603 3.33000941 10.08474444 2.5 8.125 C2.0359375 7.03445312 1.571875 5.94390625 1.09375 4.8203125 C0 2 0 2 0 0 Z " fill="#E59D0E" transform="translate(141,195)"/>
<path d="M0 0 C4.95 0.33 9.9 0.66 15 1 C15 1.66 15 2.32 15 3 C10.05 3 5.1 3 0 3 C0 2.01 0 1.02 0 0 Z " fill="#E59D0E" transform="translate(122,223)"/>
<path d="" fill="#1B4C8C" transform="translate(0,0)"/>
</svg>
