<?xml version="1.0" encoding="UTF-8"?>
<!DOCTYPE svg PUBLIC "-//W3C//DTD SVG 1.1//EN" "http://www.w3.org/Graphics/SVG/1.1/DTD/svg11.dtd">
<svg xmlns="http://www.w3.org/2000/svg" version="1.1" width="500px" height="500px" style="shape-rendering:geometricPrecision; text-rendering:geometricPrecision; image-rendering:optimizeQuality; fill-rule:evenodd; clip-rule:evenodd" xmlns:xlink="http://www.w3.org/1999/xlink">
<g><path style="opacity:0.549" fill="#e49d0d" d="M 154.5,207.5 C 154.167,207.5 153.833,207.5 153.5,207.5C 152.513,202.695 152.179,197.695 152.5,192.5C 153.5,192.5 154.5,192.5 155.5,192.5C 155.387,197.518 155.053,202.518 154.5,207.5 Z"/></g>
<g><path style="opacity:0.582" fill="#e49d0d" d="M 140.5,194.5 C 142.124,194.36 143.29,195.027 144,196.5C 145.167,200 146.333,203.5 147.5,207C 147.167,207.5 146.833,208 146.5,208.5C 143.954,204.074 141.954,199.408 140.5,194.5 Z"/></g>
<g><path style="opacity:0.543" fill="#e49d0d" d="M 131.5,200.5 C 136.317,203.581 139.317,207.581 140.5,212.5C 137.182,209.683 134.015,206.683 131,203.5C 130.53,202.423 130.697,201.423 131.5,200.5 Z"/></g>
<g><path style="opacity:0.777" fill="#84a9d9" d="M 153.5,207.5 C 153.833,207.5 154.167,207.5 154.5,207.5C 165.127,207.105 174.294,210.439 182,217.5C 183.163,220.971 182.33,223.638 179.5,225.5C 179.167,225.5 178.833,225.5 178.5,225.5C 171.963,225.563 166.297,223.397 161.5,219C 166.681,220.61 172.014,221.61 177.5,222C 178.451,221.282 178.617,220.449 178,219.5C 172.075,215.181 165.408,212.848 158,212.5C 151.347,213.82 147.347,217.82 146,224.5C 145.333,229.167 145.333,233.833 146,238.5C 150.997,250.318 153.497,262.652 153.5,275.5C 154.552,275.649 155.552,275.483 156.5,275C 158.458,272.252 160.291,269.418 162,266.5C 162.837,264.993 164.004,264.493 165.5,265C 163.261,270.143 160.261,274.81 156.5,279C 154.299,279.825 152.466,279.325 151,277.5C 149.228,265.08 145.895,253.08 141,241.5C 138.402,232.072 139.402,223.072 144,214.5C 146.529,211.115 149.696,208.782 153.5,207.5 Z"/></g>
<g><path style="opacity:0.575" fill="#e49d0d" d="M 124.5,210.5 C 128.966,212.566 133.299,214.9 137.5,217.5C 137,217.833 136.5,218.167 136,218.5C 132.208,216.736 128.375,215.069 124.5,213.5C 123.438,212.575 123.438,211.575 124.5,210.5 Z"/></g>
<g><path style="opacity:0.763" fill="#1b4b8c" d="M 294.5,221.5 C 304.408,220.27 313.575,222.27 322,227.5C 322.824,230.882 322.657,234.216 321.5,237.5C 315.387,224.507 305.387,220.34 291.5,225C 284.866,228.838 283.866,233.838 288.5,240C 298.547,245.241 308.88,249.907 319.5,254C 329.903,264.566 328.236,272.9 314.5,279C 302.343,281.95 290.843,280.45 280,274.5C 277.31,262.338 279.143,261.505 285.5,272C 293.543,278.521 302.543,280.188 312.5,277C 321.246,272.369 322.579,266.369 316.5,259C 308.991,255.608 301.325,252.608 293.5,250C 281.689,246.217 278.189,238.717 283,227.5C 286.372,224.444 290.206,222.444 294.5,221.5 Z"/></g>
<g><path style="opacity:0.632" fill="#e49d0d" d="M 121.5,222.5 C 141.422,224.15 141.422,225.15 121.5,225.5C 121.5,224.5 121.5,223.5 121.5,222.5 Z"/></g>
<g><path style="opacity:0.78" fill="#1b4b8c" d="M 178.5,225.5 C 178.833,225.5 179.167,225.5 179.5,225.5C 192.991,223.49 198.491,229.157 196,242.5C 193,247.833 190,253.167 187,258.5C 186.689,264.874 186.023,271.207 185,277.5C 182.374,281.072 179.374,281.405 176,278.5C 172.588,271.342 168.922,264.342 165,257.5C 162.541,254.9 160.041,254.9 157.5,257.5C 156.406,256.132 156.74,254.965 158.5,254C 163.533,252.433 167.367,253.933 170,258.5C 173.333,263.833 176.667,269.167 180,274.5C 180.182,268.103 180.848,261.77 182,255.5C 184.748,250.334 187.748,245.334 191,240.5C 192.378,236.013 191.212,232.513 187.5,230C 180.833,229.667 174.167,229.333 167.5,229C 163.71,228.23 161.877,226.063 162,222.5C 166.993,227.3 172.493,228.3 178.5,225.5 Z"/></g>
<g><path style="opacity:0.767" fill="#1b4b8c" d="M 200.5,222.5 C 211.555,222.121 222.555,222.621 233.5,224C 246.074,228.648 250.574,237.481 247,250.5C 244.925,254.579 242.092,258.079 238.5,261C 242.308,267.628 246.975,273.462 252.5,278.5C 249.554,279.655 246.554,279.821 243.5,279C 240.167,274 236.833,269 233.5,264C 230.032,263.958 226.532,264.125 223,264.5C 219.158,264.593 215.491,263.926 212,262.5C 211.172,267.202 211.338,271.869 212.5,276.5C 213.931,276.977 215.264,277.643 216.5,278.5C 211.167,279.833 205.833,279.833 200.5,278.5C 202.193,277.772 203.693,276.772 205,275.5C 205.667,259.167 205.667,242.833 205,226.5C 203.141,225.421 201.641,224.088 200.5,222.5 Z M 211.5,224.5 C 233.602,222.104 243.436,231.77 241,253.5C 240.047,255.455 238.713,257.122 237,258.5C 233.786,253.618 229.619,249.785 224.5,247C 219.495,246.083 215.328,247.583 212,251.5C 211.5,242.506 211.334,233.506 211.5,224.5 Z M 216.5,250.5 C 218.857,250.337 221.19,250.503 223.5,251C 226.813,253.983 229.813,257.317 232.5,261C 226.413,263.06 220.413,262.726 214.5,260C 210.231,255.847 210.897,252.68 216.5,250.5 Z"/></g>
<g><path style="opacity:0.871" fill="#1b4b8c" d="M 255.5,222.5 C 261.206,222.171 266.872,222.505 272.5,223.5C 269.921,223.915 268.087,225.248 267,227.5C 266.333,243.167 266.333,258.833 267,274.5C 268.087,276.752 269.921,278.085 272.5,278.5C 266.833,279.833 261.167,279.833 255.5,278.5C 257.567,277.866 259.4,276.866 261,275.5C 261.667,259.167 261.667,242.833 261,226.5C 258.869,225.385 257.035,224.052 255.5,222.5 Z"/></g>
<g><path style="opacity:0.719" fill="#1b4b8c" d="M 374.5,232.5 C 372.329,229.176 369.329,226.676 365.5,225C 358.174,224.5 350.841,224.334 343.5,224.5C 343.5,233.167 343.5,241.833 343.5,250.5C 348.412,250.937 353.078,250.104 357.5,248C 358.723,245.948 359.723,243.781 360.5,241.5C 361.833,247.833 361.833,254.167 360.5,260.5C 359.562,257.109 357.562,254.609 354.5,253C 350.848,252.501 347.182,252.335 343.5,252.5C 343.5,260.833 343.5,269.167 343.5,277.5C 352.25,277.91 360.916,277.41 369.5,276C 371.712,273.957 373.712,271.791 375.5,269.5C 375.823,272.705 375.823,276.038 375.5,279.5C 361.151,279.833 346.818,279.499 332.5,278.5C 334.193,277.772 335.693,276.772 337,275.5C 337.667,259.167 337.667,242.833 337,226.5C 335.693,225.228 334.193,224.228 332.5,223.5C 346.484,222.501 360.484,222.167 374.5,222.5C 374.5,225.833 374.5,229.167 374.5,232.5 Z"/></g>
<g><path style="opacity:0.551" fill="#e49d0d" d="M 135.5,230.5 C 137.549,230.706 137.883,231.539 136.5,233C 132.244,234.807 127.911,236.307 123.5,237.5C 123.5,236.5 123.5,235.5 123.5,234.5C 127.784,233.739 131.784,232.405 135.5,230.5 Z"/></g>
<g><path style="opacity:0.063" fill="#1b4b8c" d="M 374.5,232.5 C 375.833,233.167 375.833,233.167 374.5,232.5 Z"/></g>
<g><path style="opacity:0.743" fill="#1b4b8c" d="M 176.5,288.5 C 186.263,287.577 189.263,291.744 185.5,301C 182.518,301.498 179.518,301.665 176.5,301.5C 176.5,297.167 176.5,292.833 176.5,288.5 Z M 178.5,290.5 C 184.195,290.632 185.862,293.298 183.5,298.5C 181.955,299.452 180.288,299.785 178.5,299.5C 178.5,296.5 178.5,293.5 178.5,290.5 Z"/></g>
<g><path style="opacity:0.67" fill="#1b4b8c" d="M 193.5,288.5 C 196.572,288.183 199.572,288.516 202.5,289.5C 200.604,290.466 198.604,290.799 196.5,290.5C 196.5,291.833 196.5,293.167 196.5,294.5C 204.5,295.167 204.5,295.833 196.5,296.5C 196.5,297.5 196.5,298.5 196.5,299.5C 198.604,299.201 200.604,299.534 202.5,300.5C 199.572,301.484 196.572,301.817 193.5,301.5C 193.5,297.167 193.5,292.833 193.5,288.5 Z"/></g>
<g><path style="opacity:0.668" fill="#1b4b8c" d="M 209.5,288.5 C 212.552,289.88 214.718,292.214 216,295.5C 216.497,293.19 216.663,290.857 216.5,288.5C 217.5,288.5 218.5,288.5 219.5,288.5C 219.5,292.833 219.5,297.167 219.5,301.5C 218.448,301.649 217.448,301.483 216.5,301C 215,298.833 213.5,296.667 212,294.5C 211.814,296.9 211.314,299.234 210.5,301.5C 209.508,297.217 209.174,292.884 209.5,288.5 Z"/></g>
<g><path style="opacity:0.698" fill="#1b4b8c" d="M 225.5,288.5 C 228.833,288.5 232.167,288.5 235.5,288.5C 235.5,289.5 235.5,290.5 235.5,291.5C 234.167,291.5 232.833,291.5 231.5,291.5C 230.833,304.833 230.167,304.833 229.5,291.5C 228.167,291.5 226.833,291.5 225.5,291.5C 225.5,290.5 225.5,289.5 225.5,288.5 Z"/></g>
<g><path style="opacity:0.614" fill="#1b4b8c" d="M 243.5,288.5 C 244.822,288.33 245.989,288.663 247,289.5C 248.5,293.167 250,296.833 251.5,300.5C 251,300.833 250.5,301.167 250,301.5C 247,298.833 244,298.833 241,301.5C 240.5,301.167 240,300.833 239.5,300.5C 241.414,296.677 242.747,292.677 243.5,288.5 Z M 244.5,293.5 C 246.465,293.948 246.798,294.948 245.5,296.5C 244.614,295.675 244.281,294.675 244.5,293.5 Z"/></g>
<g><path style="opacity:0.61" fill="#1b4b8c" d="M 257.5,288.5 C 258.5,288.5 259.5,288.5 260.5,288.5C 260.5,292.167 260.5,295.833 260.5,299.5C 262.604,299.201 264.604,299.534 266.5,300.5C 263.572,301.484 260.572,301.817 257.5,301.5C 257.5,297.167 257.5,292.833 257.5,288.5 Z"/></g>
<g><path style="opacity:0.601" fill="#1b4b8c" d="M 283.5,288.5 C 286.365,288.055 288.865,288.722 291,290.5C 291.749,291.635 291.583,292.635 290.5,293.5C 286.769,289.198 284.435,289.864 283.5,295.5C 283.112,297.955 284.112,299.288 286.5,299.5C 288.036,298.751 289.369,297.751 290.5,296.5C 291.747,298.006 291.747,299.506 290.5,301C 284.429,303.63 281.095,301.63 280.5,295C 280.84,292.489 281.84,290.322 283.5,288.5 Z"/></g>
<g><path style="opacity:0.638" fill="#1b4b8c" d="M 301.5,288.5 C 303.124,288.36 304.29,289.027 305,290.5C 306.306,293.612 307.472,296.779 308.5,300C 308.167,300.5 307.833,301 307.5,301.5C 306.312,300.16 304.812,299.493 303,299.5C 300.924,300.612 298.757,301.112 296.5,301C 298.462,296.946 300.129,292.779 301.5,288.5 Z M 302.5,292.5 C 305.459,295.271 305.126,296.271 301.5,295.5C 302.127,294.583 302.461,293.583 302.5,292.5 Z"/></g>
<g><path style="opacity:0.633" fill="#1b4b8c" d="M 314.5,288.5 C 318.007,287.994 321.174,288.66 324,290.5C 324.896,293.025 324.396,295.192 322.5,297C 323.743,298.154 324.743,299.488 325.5,301C 324.5,301.667 323.5,301.667 322.5,301C 321.274,299.365 319.941,297.865 318.5,296.5C 317.548,298.045 317.215,299.712 317.5,301.5C 316.5,301.5 315.5,301.5 314.5,301.5C 314.5,297.167 314.5,292.833 314.5,288.5 Z M 317.5,290.5 C 323.963,292.262 323.963,293.595 317.5,294.5C 317.5,293.167 317.5,291.833 317.5,290.5 Z"/></g>
<g><path style="opacity:0.67" fill="#1b4b8c" d="M 331.5,288.5 C 334.572,288.183 337.572,288.516 340.5,289.5C 338.604,290.466 336.604,290.799 334.5,290.5C 334.5,291.833 334.5,293.167 334.5,294.5C 342.5,295.167 342.5,295.833 334.5,296.5C 334.5,297.5 334.5,298.5 334.5,299.5C 336.604,299.201 338.604,299.534 340.5,300.5C 337.572,301.484 334.572,301.817 331.5,301.5C 331.5,297.167 331.5,292.833 331.5,288.5 Z"/></g>
<g><path style="opacity:0.808" fill="#1b4b8c" d="M 154.5,294.5 C 159.833,294.5 165.167,294.5 170.5,294.5C 170.5,295.5 170.5,296.5 170.5,297.5C 165.167,297.5 159.833,297.5 154.5,297.5C 154.5,296.5 154.5,295.5 154.5,294.5 Z"/></g>
<g><path style="opacity:0.808" fill="#1b4b8c" d="M 346.5,294.5 C 351.833,294.5 357.167,294.5 362.5,294.5C 362.5,295.5 362.5,296.5 362.5,297.5C 357.167,297.5 351.833,297.5 346.5,297.5C 346.5,296.5 346.5,295.5 346.5,294.5 Z"/></g>
</svg>
